<svg width="155" height="228" viewBox="0 0 155 228" fill="#f97316" xmlns="http://www.w3.org/2000/svg">
   <style>
        svg * { fill: #f97316; }
    </style>
<path d="M21.2953 52.4392C21.5991 52.109 21.9117 51.8537 22.2551 51.6335C22.8494 51.2505 23.5538 50.9775 24.4211 50.7794C25.7155 50.48 27.3356 50.3876 29.1143 50.2775C30.0036 50.2159 30.9325 50.1455 31.8923 50.009C32.8521 49.8681 33.847 49.6656 34.8508 49.309C35.9295 48.9259 36.9245 48.4284 37.8138 47.8253C39.3723 46.7731 40.583 45.4127 41.5207 43.9466C42.2296 42.846 42.7975 41.6837 43.3214 40.4774C44.1007 38.6635 44.7699 36.7396 45.5359 34.688C46.2976 32.6364 47.1516 30.4615 48.2699 28.1502C48.9171 26.8074 49.7272 25.6055 50.6561 24.5136C52.2851 22.6029 54.3102 21.0312 56.4675 19.7676C59.6946 17.8701 63.1991 16.6814 65.8714 15.9946C67.2054 15.6512 68.3325 15.4311 69.1073 15.2946C69.4947 15.2286 69.7985 15.1846 69.9966 15.1581C70.0935 15.1449 70.1683 15.1361 70.2124 15.1317H70.2564V15.1273H70.2608C71.9514 14.9424 73.1709 13.4235 72.986 11.7329C72.8011 10.0423 71.2822 8.81843 69.5916 9.00334C69.4243 9.02535 64.6343 9.54046 58.8933 11.7858C56.0229 12.9128 52.9102 14.4713 50.0309 16.6814C48.5913 17.7865 47.2133 19.0544 45.9674 20.5161C44.7214 21.9733 43.6076 23.6243 42.7182 25.4778C41.4591 28.0841 40.5214 30.5011 39.7245 32.6452C39.1257 34.2521 38.6062 35.7138 38.1043 36.9817C37.7257 37.9327 37.3559 38.7824 36.9773 39.5088C36.4094 40.6051 35.837 41.4239 35.1986 42.0403C34.5559 42.6567 33.8515 43.1233 32.7948 43.502C32.3678 43.6516 31.8615 43.7749 31.2803 43.8718C30.2633 44.0391 29.035 44.1095 27.6834 44.1976C26.6664 44.2636 25.5834 44.3429 24.4519 44.5146C23.6022 44.6422 22.7261 44.8271 21.8368 45.1045C20.5072 45.5227 19.1424 46.1831 17.9053 47.1957C16.6682 48.2039 15.594 49.5511 14.7795 51.1933C13.7801 53.1876 13.3618 55.2216 13.3662 57.0795C13.3662 58.7085 13.67 60.2054 14.1059 61.5129C14.7619 63.4765 15.704 65.0306 16.4877 66.1312C17.2713 67.2275 17.9053 67.8702 17.9978 67.9627C19.1997 69.1646 21.1544 69.1646 22.3563 67.9627C23.5538 66.7652 23.5582 64.8237 22.3695 63.6174L22.3607 63.6085C22.2771 63.5249 21.511 62.6972 20.8154 61.4777C20.4676 60.8701 20.1374 60.1657 19.9041 59.4173C19.6707 58.6689 19.5255 57.8852 19.5255 57.0795C19.5255 56.0977 19.7236 55.0852 20.2871 53.9493C20.6129 53.3021 20.9519 52.8222 21.2997 52.4436L21.2953 52.4392Z" fill="#121212"/>
<path d="M19.2085 104.28C20.9079 104.368 22.3563 103.06 22.4444 101.361C22.5324 99.6656 21.2336 98.2216 19.5387 98.1247C19.477 98.1247 18.7198 98.0631 17.6191 97.8121C16.7914 97.6228 15.77 97.3235 14.7002 96.8612C13.0889 96.17 11.3851 95.1266 9.95424 93.5725C9.23661 92.7932 8.58063 91.8863 8.0171 90.7988C7.45797 89.7114 6.9957 88.4479 6.68312 86.9422C6.32651 85.2208 6.18122 83.6843 6.18122 82.3195C6.18122 80.3823 6.47179 78.7798 6.88564 77.4458C7.29067 76.1471 7.82339 75.108 8.3473 74.2892C9.41272 75.6143 10.5046 76.7414 11.4995 77.6703C13.7757 79.7836 15.5939 80.8798 15.726 80.9635C17.1877 81.8396 19.0764 81.3641 19.9525 79.9069C20.8286 78.4496 20.3531 76.5565 18.8959 75.6804C18.7286 75.5835 16.0474 73.8797 13.5203 70.8816C12.2568 69.3847 11.0329 67.5708 10.1347 65.4928C9.23662 63.406 8.65547 61.0638 8.65547 58.3959C8.65547 55.9172 9.15737 53.148 10.4649 50.0133C11.6096 47.2793 12.9964 45.2101 14.4889 43.6076C15.6072 42.4057 16.7914 41.4635 17.9978 40.7151C19.8072 39.5924 21.6871 38.9056 23.4569 38.4962C25.2268 38.0867 26.891 37.9635 28.2249 37.9635C29.1847 37.9635 29.9728 38.0251 30.5011 38.0867C30.7652 38.1176 30.9633 38.1484 31.0866 38.166C31.1483 38.1748 31.1923 38.1836 31.2143 38.188H31.2319C32.2753 38.2496 33.2879 38.0691 34.0143 37.3471L35.3351 36.0263C36.537 34.8244 36.537 32.8697 35.3351 31.6678C34.1332 30.4659 32.1785 30.4659 30.9766 31.6678L30.73 31.9143C30.0564 31.8527 29.2067 31.7999 28.2205 31.7999C26.7017 31.7999 24.8614 31.9231 22.8362 32.3238C19.8072 32.9269 16.3556 34.164 13.1065 36.5855C11.4863 37.7918 9.92342 39.2931 8.50579 41.1245C7.08815 42.956 5.82021 45.1133 4.768 47.6271C3.16546 51.4486 2.47866 55.0675 2.47866 58.387C2.47866 62.0808 3.32395 65.3783 4.57868 68.1916C4.66233 68.3765 4.74598 68.557 4.83403 68.7331C4.32774 69.2966 3.76861 70.001 3.20508 70.8596C2.3906 72.1099 1.58493 73.6904 0.98618 75.6011C0.38743 77.5119 0 79.7572 0 82.3107C0 84.1157 0.193714 86.0749 0.629569 88.1837C1.39562 91.9083 2.95854 94.8932 4.88246 97.1518C6.32211 98.8512 7.94226 100.146 9.5448 101.118C11.9486 102.585 14.2996 103.355 16.0738 103.773C17.8481 104.191 19.0544 104.262 19.1953 104.271L19.2085 104.28Z" fill="#121212"/>
<path d="M18.209 87.5454C17.4606 87.0788 16.5537 86.4184 15.9637 85.824C14.7618 84.6221 12.8071 84.6221 11.6052 85.824C10.4033 87.0259 10.4033 88.9807 11.6052 90.1826C12.7586 91.3273 14.0134 92.1902 15.0128 92.8197C16.0121 93.4405 16.7474 93.8103 16.809 93.8411C18.3323 94.6028 20.1814 93.9864 20.943 92.4631C21.7047 90.9398 21.0883 89.0952 19.5694 88.3291C19.5694 88.3291 18.9575 88.0165 18.209 87.5454Z" fill="#121212"/>
<path d="M19.5035 110.267C18.099 109.303 16.1795 109.664 15.2197 111.068C14.2556 112.473 14.6166 114.392 16.021 115.352L16.4481 115.643C17.8525 116.607 19.772 116.246 20.7318 114.841C21.6959 113.437 21.3349 111.517 19.9305 110.558L19.5035 110.267Z" fill="#121212"/>
<path d="M23.2677 29.1539L23.2809 29.1451C23.435 29.0174 24.8966 27.8243 27.0099 26.7149C28.0665 26.1601 29.2772 25.623 30.5539 25.2356C31.8307 24.8482 33.1647 24.6104 34.4766 24.6104C35.3572 24.6104 36.4798 24.0865 37.0522 23.2236C37.083 23.1752 39.7245 19.2305 45.1529 15.1889C47.8693 13.1637 51.2769 11.1121 55.4153 9.47876C59.5537 7.8454 64.4274 6.62588 70.1067 6.28248C71.3439 6.20764 72.5502 6.17242 73.7168 6.17242C78.9163 6.17242 83.4333 6.88564 87.3604 8.05672C93.2467 9.81335 97.8166 12.6002 101.334 15.6512C104.847 18.7022 107.295 22.0305 108.827 24.7953C109.527 26.0545 110.377 27.1419 111.302 28.0929C112.922 29.7526 114.736 30.9942 116.506 32.1344C117.835 32.9885 119.147 33.7854 120.38 34.6219C122.229 35.8766 123.88 37.2018 125.227 38.8836C126.57 40.5698 127.657 42.6214 128.326 45.5535C128.758 47.4686 128.934 49.212 128.934 50.8014C128.934 52.9454 128.613 54.8033 128.137 56.4015C127.424 58.7965 126.354 60.6147 125.478 61.8122C125.042 62.411 124.655 62.8512 124.395 63.1286C124.263 63.2695 124.166 63.3663 124.109 63.4192L124.056 63.472C122.792 64.5947 122.665 66.5274 123.779 67.8041C124.897 69.0853 126.843 69.2174 128.128 68.0991C128.309 67.9406 130.017 66.4217 131.721 63.5248C132.571 62.0764 133.42 60.2845 134.054 58.1537C134.688 56.0228 135.106 53.5574 135.106 50.7926C135.106 48.7454 134.877 46.5353 134.345 44.1887C133.913 42.2692 133.306 40.5434 132.557 39.0025C131.25 36.3037 129.515 34.1816 127.666 32.4866C126.279 31.2143 124.84 30.1709 123.444 29.2419C121.353 27.8551 119.372 26.7149 117.782 25.5438C116.985 24.9582 116.285 24.3727 115.691 23.7607C115.097 23.1488 114.612 22.5104 114.216 21.8016C113.591 20.6745 112.847 19.4858 111.984 18.2707C114.938 18.7066 117.663 19.5519 120.168 20.6525C125.725 23.0959 130.149 26.8425 133.152 29.986C134.653 31.5533 135.798 32.9665 136.559 33.9703C136.938 34.4722 137.22 34.8728 137.405 35.1414C137.497 35.2735 137.563 35.3747 137.603 35.4364L137.647 35.5024L137.656 35.5112C138.562 36.9465 140.464 37.3779 141.904 36.471C143.344 35.564 143.775 33.6621 142.868 32.2225C142.758 32.0552 139.619 27.0759 133.684 22.0173C130.713 19.4902 127.036 16.9411 122.66 15.0128C118.293 13.0845 113.217 11.7813 107.555 11.7813C107.132 11.7813 106.705 11.7901 106.278 11.8033C103.364 9.12215 99.7757 6.57746 95.4348 4.54346C89.5749 1.79185 82.3635 0 73.7168 0C72.4225 0 71.0929 0.0396232 69.7325 0.123272C63.2871 0.515102 57.6826 1.92393 52.9279 3.83025C45.7957 6.68312 40.5786 10.6322 37.1358 13.8769C35.1238 15.7744 33.715 17.4342 32.8653 18.5217C31.32 18.6625 29.8583 18.9927 28.5155 19.4154C25.808 20.2739 23.5494 21.511 21.9337 22.5412C20.3179 23.5714 19.3494 24.3991 19.2657 24.4695C17.9714 25.579 17.8217 27.5249 18.9311 28.8149C20.0362 30.1048 21.9777 30.2545 23.2721 29.1539H23.2677Z" fill="#121212"/>
<path d="M89.6365 39.3854C90.2573 40.7194 91.0409 42.1238 92.0447 43.5018C93.546 45.5666 95.5492 47.5742 98.1775 49.1107C100.801 50.6516 104.033 51.6862 107.828 51.8931C109.527 51.9856 110.98 50.6868 111.077 48.9874C111.17 47.288 109.871 45.8352 108.171 45.7383C106.459 45.6415 104.988 45.3377 103.703 44.893C101.457 44.1138 99.7536 42.9074 98.3712 41.4766C97.341 40.4068 96.5045 39.2049 95.8398 37.9942C94.8404 36.1803 94.224 34.3444 93.8762 32.9928C93.7001 32.3148 93.5944 31.7601 93.5284 31.3859C93.4976 31.201 93.4756 31.0601 93.4623 30.9721C93.4579 30.928 93.4535 30.8972 93.4491 30.884V30.8708C93.2642 29.1846 91.7541 27.9607 90.0636 28.1412C88.373 28.3173 87.1447 29.8362 87.3208 31.5268C87.334 31.6456 87.466 32.8343 87.9283 34.6086C88.2761 35.9382 88.8088 37.5979 89.6365 39.381V39.3854Z" fill="#121212"/>
<path d="M54.6449 48.0322C55.7323 49.2781 57.0663 50.4316 58.6645 51.431C62.257 53.6851 65.9067 54.6801 69.2615 54.6757C72.8188 54.6757 76.0062 53.5795 78.5245 51.9285C79.788 51.1008 80.8887 50.1322 81.8132 49.0668C82.7334 48.0014 83.473 46.8391 83.9925 45.602C84.807 43.6472 85.1768 41.6969 85.1724 39.8654C85.1724 37.083 84.3403 34.6087 83.1208 32.654C82.5088 31.6722 81.7956 30.8181 81.0076 30.0961C80.2195 29.3785 79.3566 28.7885 78.3968 28.3747C76.8339 27.7055 75.02 28.4275 74.3509 29.9948C73.6817 31.5621 74.4037 33.3716 75.971 34.0408C76.1691 34.1245 76.4993 34.3226 76.8515 34.644C77.3798 35.1238 77.9434 35.8635 78.344 36.7572C78.749 37.6553 79.0088 38.7031 79.0088 39.8654C79.0088 40.8868 78.8107 42.0007 78.3 43.229C78.071 43.7837 77.6836 44.4177 77.1465 45.034C76.3452 45.963 75.2182 46.8479 73.8754 47.4819C72.5282 48.1159 70.9741 48.5121 69.2571 48.5121C67.0954 48.5077 64.652 47.9045 61.9312 46.2051C60.8217 45.5095 59.9676 44.7611 59.2896 43.9818C58.2726 42.8107 57.6298 41.556 57.2248 40.244C56.8198 38.9365 56.6613 37.5717 56.6613 36.2817C56.6613 34.6704 56.9078 33.1823 57.1544 32.1257C57.2776 31.5974 57.4009 31.1791 57.489 30.9018C57.533 30.7653 57.5682 30.664 57.5902 30.6024L57.6122 30.5408V30.5363C58.2154 28.9514 57.4185 27.1728 55.8336 26.5652C54.2443 25.9577 52.4612 26.7501 51.8537 28.3395C51.814 28.4407 51.4838 29.3168 51.1581 30.7213C50.8323 32.1213 50.5065 34.054 50.5021 36.2773C50.5021 38.6503 50.8763 41.3799 52.109 44.0919C52.7254 45.4435 53.5575 46.7819 54.6449 48.0278V48.0322Z" fill="#121212"/>
<path d="M119.724 59.1529C120.534 58.4221 121.287 57.5504 121.912 56.5246C122.537 55.5032 123.034 54.3277 123.329 53.0333C123.58 51.9503 123.712 50.8453 123.712 49.7314C123.712 48.1817 123.453 46.6232 122.898 45.1307C122.075 42.8854 120.595 40.8074 118.548 39.0816C116.501 37.3469 113.895 35.9425 110.734 34.8903C109.607 34.5161 108.748 34.1022 108.061 33.6796C107.463 33.3098 106.991 32.9268 106.586 32.5173C105.878 31.8041 105.332 30.9896 104.764 29.9506C104.337 29.1758 103.905 28.282 103.39 27.3003C102.615 25.8298 101.634 24.1524 100.141 22.5102C98.653 20.8637 96.6674 19.2876 94.0127 17.9096C90.2044 15.9328 86.0264 15.0391 81.9628 15.0347C79.6074 15.0347 77.2829 15.334 75.0772 15.9196C71.7664 16.7957 68.7022 18.297 66.206 20.4322C64.96 21.5021 63.8594 22.7348 62.9657 24.126C62.0719 25.5128 61.394 27.0625 60.9933 28.7311C60.6763 30.0475 60.5266 31.2846 60.5266 32.4469C60.5222 34.5777 61.0594 36.4576 61.9311 37.9413C62.5782 39.0551 63.3883 39.9401 64.2072 40.6181C65.4399 41.6395 66.6859 42.2206 67.6456 42.5684C68.6054 42.9162 69.2834 43.0351 69.4243 43.0571C71.106 43.3301 72.6866 42.1898 72.9595 40.508C73.2281 38.8394 72.1054 37.2677 70.4413 36.9771C70.406 36.9683 70.0934 36.9023 69.6796 36.7482C69.3714 36.6293 69.0104 36.462 68.6626 36.2463C68.4029 36.0834 68.1475 35.8897 67.9186 35.674C67.5752 35.3438 67.289 34.9695 67.0689 34.4765C66.8531 33.979 66.6903 33.3538 66.6859 32.4469C66.6859 31.8261 66.7695 31.0733 66.9852 30.1707C67.2978 28.8764 67.8878 27.7097 68.7419 26.6355C70.0186 25.0285 71.9205 23.6549 74.2231 22.6952C76.5256 21.7354 79.2156 21.1983 81.9584 21.2027C85.1194 21.2027 88.3333 21.9071 91.1642 23.382C92.3749 24.0115 93.3303 24.6455 94.1139 25.2795C95.4831 26.3889 96.3416 27.4852 97.0901 28.6827C97.6492 29.5808 98.1335 30.5494 98.6662 31.6016C99.0668 32.3896 99.4983 33.2217 100.031 34.0758C100.823 35.3526 101.862 36.6866 103.307 37.8532C104.746 39.0199 106.547 39.9973 108.783 40.7413C110.496 41.3137 111.905 41.9785 113.049 42.6917C114.762 43.7659 115.863 44.9282 116.554 46.0905C117.241 47.2572 117.544 48.4459 117.549 49.7402C117.549 50.3566 117.474 50.9949 117.324 51.6553C117.122 52.5138 116.783 53.1874 116.338 53.7774C116.004 54.2176 115.607 54.6007 115.167 54.9353C114.511 55.4371 113.749 55.8158 113.045 56.0535C112.693 56.1724 112.358 56.256 112.068 56.3089C111.777 56.3617 111.531 56.3793 111.376 56.3793C111.319 56.3793 111.275 56.3793 111.253 56.3749H111.231C109.567 56.0491 107.951 57.1321 107.617 58.7963C107.282 60.4649 108.365 62.0894 110.034 62.424C110.5 62.5165 110.936 62.5473 111.376 62.5473C112.407 62.5473 113.468 62.3712 114.599 62.0322C116.281 61.5215 118.099 60.6278 119.719 59.1661L119.724 59.1529Z" fill="#121212"/>
<path d="M153.857 53.3108C153.536 52.0252 153.157 50.8497 152.717 49.7931C152.276 48.7365 151.792 47.8031 151.167 46.9667C150.141 45.6063 148.208 45.3377 146.852 46.3635C146.351 46.7421 145.998 47.244 145.805 47.7943C145.73 44.7169 145.4 42.705 145.382 42.5949C145.1 40.9175 143.515 39.7816 141.834 40.0634C140.156 40.3452 139.025 41.9301 139.298 43.6031C139.298 43.6031 139.654 45.8088 139.654 49.0007C139.654 51.607 139.417 54.8869 138.606 58.1888C137.796 61.4952 136.418 64.8103 134.199 67.606C133.143 68.9399 133.367 70.8771 134.701 71.9337C136.035 72.9903 137.972 72.7658 139.029 71.4318C141.939 67.7512 143.621 63.5952 144.59 59.6593C145.466 56.0932 145.756 52.6944 145.805 49.8768C145.906 50.1585 146.051 50.4315 146.241 50.6824C146.417 50.9114 146.725 51.4397 147.02 52.1573C147.469 53.2359 147.909 54.7328 148.226 56.441C148.543 58.1492 148.737 60.0687 148.737 62.0279C148.737 64.8147 148.341 67.6808 147.425 70.1727C146.967 71.4186 146.39 72.5765 145.677 73.6023C144.964 74.6325 144.118 75.5394 143.106 76.3143C142.186 77.0187 141.31 77.4545 140.464 77.7275C139.619 78.0004 138.8 78.1149 137.99 78.1149C137.123 78.1149 136.269 77.9828 135.472 77.7715C134.279 77.4545 133.222 76.957 132.496 76.5476C132.13 76.3407 131.848 76.1602 131.668 76.0369C131.58 75.9753 131.514 75.9312 131.479 75.9048L131.448 75.8828C130.105 74.8482 128.177 75.0947 127.138 76.4331C126.094 77.7759 126.336 79.713 127.679 80.7565C127.807 80.8533 128.894 81.6942 130.691 82.5439C131.589 82.971 132.663 83.398 133.891 83.7238C135.12 84.0496 136.502 84.2785 137.994 84.2785C139.381 84.2785 140.865 84.0804 142.371 83.5917C143.876 83.103 145.4 82.3238 146.848 81.2099C148.402 80.0256 149.692 78.6256 150.74 77.1111C152.316 74.835 153.346 72.3079 153.993 69.7368C154.636 67.1657 154.896 64.5462 154.896 62.0279C154.896 58.8756 154.491 55.8819 153.848 53.3152L153.857 53.3108Z" fill="#121212"/>
<path d="M145.232 95.3906C144.154 94.1315 142.864 92.9824 141.367 92.0183C139.557 90.8516 137.761 90.1076 136.088 89.566C134.833 89.161 133.645 88.8616 132.526 88.5711C130.845 88.1352 129.335 87.717 127.86 87.0566C126.389 86.3918 124.928 85.4981 123.307 83.9924C122.533 83.2703 121.872 82.3326 121.339 81.2496C120.534 79.6294 120.028 77.6879 119.755 75.9136C119.477 74.135 119.416 72.528 119.42 71.5551C119.42 71.2293 119.424 70.9783 119.433 70.811C119.433 70.7274 119.438 70.6658 119.442 70.6305V70.5953C119.548 68.9003 118.262 67.4343 116.567 67.3242C114.868 67.2141 113.402 68.4997 113.292 70.1991C113.292 70.2563 113.256 70.7494 113.256 71.5551C113.256 73.1664 113.371 76.0105 114.115 79.1539C114.489 80.7257 115.022 82.3722 115.819 83.9836C116.611 85.5861 117.672 87.1578 119.107 88.5006C120.974 90.244 122.85 91.4812 124.663 92.3661C126.024 93.0309 127.345 93.5019 128.591 93.8806C130.462 94.4441 132.148 94.8095 133.684 95.2762C135.225 95.7429 136.608 96.2932 138.034 97.2089C139.011 97.8385 139.844 98.5781 140.548 99.4058C141.605 100.643 142.388 102.078 142.899 103.588C143.414 105.094 143.656 106.666 143.656 108.114C143.656 109.025 143.559 109.888 143.392 110.641C143.225 111.394 142.983 112.037 142.718 112.517C141.904 114.009 142.454 115.885 143.947 116.699C145.439 117.514 147.315 116.963 148.129 115.471C148.715 114.397 149.129 113.226 149.406 111.993C149.683 110.76 149.82 109.457 149.82 108.119C149.82 105.296 149.212 102.289 147.856 99.4542C147.178 98.0366 146.311 96.6674 145.232 95.4083V95.3906Z" fill="#121212"/>
<path d="M149.604 91.5253C151.428 91.5253 152.906 90.0469 152.906 88.2233C152.906 86.3997 151.428 84.9214 149.604 84.9214C147.781 84.9214 146.302 86.3997 146.302 88.2233C146.302 90.0469 147.781 91.5253 149.604 91.5253Z" fill="#121212"/>
<path d="M40.1472 178.833C40.4642 177.16 39.368 175.548 37.695 175.227C35.8459 174.875 33.8603 174.052 31.9276 172.797C29.0263 170.912 26.2571 168.055 24.1703 164.56C22.0834 161.064 20.6746 156.943 20.3796 152.514C20.3092 151.44 20.274 150.401 20.274 149.401C20.274 144.114 21.2205 139.857 22.6866 136.308C24.157 132.764 26.1602 129.916 28.3747 127.512C29.7131 126.059 30.7389 124.518 31.5182 122.999C32.6892 120.723 33.31 118.513 33.649 116.69C33.988 114.863 34.0408 113.419 34.0408 112.644C34.0408 112.415 34.0364 112.253 34.032 112.147V78.2646C34.0937 78.1985 34.1553 78.1325 34.2169 78.0621C34.5559 77.6438 35.0975 77.1948 35.8503 76.7809C36.973 76.1557 38.5579 75.6362 40.3409 75.3061C42.124 74.9715 44.1007 74.813 46.0291 74.813C47.3674 74.813 48.6794 74.8878 49.8901 75.0199C51.0964 75.152 52.2015 75.3501 53.0996 75.5746C54.2531 75.8652 54.9971 76.2922 55.5474 76.7457C55.9613 77.0891 56.2695 77.4633 56.516 77.8639C56.8858 78.4583 57.1148 79.1231 57.2336 79.7042C57.3569 80.281 57.3745 80.7652 57.3745 80.9458V81.0118L57.3701 81.0822V117.492C57.3701 119.195 58.7481 120.573 60.4519 120.573C62.1557 120.573 63.5337 119.195 63.5337 117.492V81.2495C63.5337 81.1747 63.5381 81.0734 63.5381 80.9458C63.5381 80.4923 63.5073 79.7394 63.3356 78.7929C63.2079 78.0841 62.9966 77.2696 62.6532 76.3979C62.1337 75.0991 61.2928 73.6683 59.9588 72.418C58.6292 71.1676 56.8198 70.1418 54.5965 69.5915C53.3682 69.2833 52.0166 69.05 50.5725 68.8915C49.1285 68.733 47.6008 68.6449 46.0335 68.6449C43.0221 68.6449 39.8919 68.9575 37.0038 69.75C35.9824 70.0318 34.9874 70.3796 34.0408 70.8066V57.6121C34.0408 55.9083 32.6628 54.5303 30.959 54.5303C29.2552 54.5303 27.8772 55.9083 27.8772 57.6121V112.371C27.8772 112.371 27.886 112.477 27.886 112.636C27.886 113.274 27.82 114.982 27.2653 116.998C26.9923 118.007 26.5961 119.094 26.0414 120.168C25.4866 121.247 24.7734 122.317 23.8489 123.321C21.2381 126.147 18.7815 129.629 16.9984 133.94C15.211 138.245 14.1104 143.361 14.1148 149.393C14.1148 150.533 14.1544 151.708 14.2336 152.915C14.4758 156.564 15.3299 160.025 16.6242 163.19C18.5702 167.941 21.5023 172.026 24.9539 175.157C28.4099 178.278 32.3899 180.47 36.5459 181.272C38.2189 181.589 39.8302 180.492 40.1516 178.82L40.1472 178.833Z" fill="#121212"/>
<path d="M37.3207 163.485C36.7615 163.278 36.2024 162.957 35.6829 162.574C34.9036 162.002 34.2212 161.293 33.7678 160.743C33.5388 160.47 33.3627 160.232 33.2571 160.078C33.2043 159.998 33.1646 159.946 33.1426 159.91L33.125 159.884C32.2181 158.449 30.325 158.017 28.8853 158.915C27.4413 159.818 27.0054 161.72 27.9035 163.164C27.9784 163.283 28.63 164.317 29.8187 165.577C30.4174 166.206 31.1482 166.893 32.0332 167.544C32.9181 168.192 33.9527 168.808 35.159 169.261C36.7527 169.86 38.527 169.05 39.1257 167.456C39.7245 165.863 38.9144 164.088 37.3207 163.49V163.485Z" fill="#121212"/>
<path d="M72.3917 70.6703C70.842 71.3703 70.1508 73.1973 70.8552 74.747C71.5552 76.2923 73.3691 76.9791 74.9144 76.2923H74.9188C75.0949 76.2175 78.8327 74.6546 85.4762 74.6546C86.6429 74.6546 87.902 74.703 89.2492 74.8175C94.026 75.2225 97.5525 76.1867 99.9739 77.098C101.185 77.5559 102.118 78.0005 102.792 78.3572C103.131 78.5377 103.403 78.6962 103.615 78.8238C103.831 78.9515 103.98 79.0528 104.086 79.1232C105.504 80.0654 107.414 79.6867 108.361 78.2691C109.307 76.8515 108.924 74.9408 107.507 73.9942C107.357 73.8929 107.119 73.7389 106.815 73.5539C105.746 72.9024 103.817 71.8722 100.995 70.9168C98.1732 69.957 94.4486 69.0677 89.7687 68.6715C88.2454 68.5438 86.8146 68.4866 85.4762 68.4866C77.3578 68.4866 72.7043 70.525 72.3917 70.6703Z" fill="#121212"/>
<path d="M133.975 100.832C132.905 99.9299 132.06 99.4632 131.928 99.3884C130.435 98.5739 128.56 99.1242 127.745 100.617C126.935 102.105 127.477 103.967 128.956 104.786C128.991 104.799 129.951 105.376 130.765 106.278C131.179 106.727 131.553 107.251 131.804 107.797C132.06 108.352 132.209 108.916 132.209 109.576C132.209 110.553 132.099 111.284 131.963 111.817C131.756 112.618 131.496 112.988 131.373 113.151C131.342 113.19 131.316 113.217 131.303 113.23C130.008 114.159 129.616 115.938 130.453 117.324C131.329 118.786 133.222 119.257 134.679 118.381C134.855 118.275 135.186 118.051 135.577 117.672C136.167 117.104 136.894 116.171 137.449 114.824C138.003 113.477 138.378 111.738 138.378 109.576C138.378 107.846 137.937 106.292 137.308 105.01C136.357 103.082 135.04 101.735 133.975 100.828V100.832Z" fill="#121212"/>
<path d="M130.937 130.299C130.242 128.648 129.467 127.169 128.599 125.892C125.835 121.837 124.43 118.658 123.717 116.444C122.999 114.225 122.969 112.97 122.969 112.728V112.702L122.973 112.631V107.379C122.973 105.675 121.595 104.297 119.891 104.297C118.187 104.297 116.809 105.675 116.809 107.379V112.429C116.809 112.508 116.805 112.609 116.805 112.732C116.805 113.604 116.941 115.524 117.853 118.346C118.764 121.163 120.446 124.879 123.51 129.37C124.082 130.206 124.694 131.347 125.262 132.698C126.121 134.728 126.887 137.228 127.424 139.94C127.965 142.652 128.287 145.58 128.287 148.481C128.287 152.092 127.789 155.658 126.68 158.726C125.663 161.557 124.294 163.917 122.775 165.898C120.499 168.87 117.862 170.992 115.59 172.44C113.318 173.889 111.421 174.655 110.677 174.928C109.078 175.513 108.255 177.283 108.841 178.881C109.426 180.479 111.196 181.303 112.794 180.717C114.212 180.198 117.826 178.705 121.771 175.606C123.739 174.056 125.791 172.097 127.666 169.649C129.542 167.206 131.237 164.273 132.478 160.813C133.891 156.882 134.446 152.646 134.45 148.477C134.45 144.008 133.803 139.615 132.773 135.718C132.254 133.772 131.637 131.95 130.942 130.299H130.937Z" fill="#121212"/>
<path d="M47.4906 145.879C48.0982 144.259 48.7718 142.595 49.529 141.032C50.097 139.861 50.7133 138.752 51.3737 137.765C52.3643 136.282 53.4473 135.102 54.5568 134.345C55.1115 133.962 55.675 133.68 56.2606 133.491C56.8505 133.301 57.4713 133.196 58.1757 133.191C58.9417 133.191 59.8179 133.319 60.8393 133.645C62.16 134.063 63.3091 134.362 64.3481 134.556C65.3871 134.75 66.3249 134.842 67.1878 134.842C68.174 134.842 69.0589 134.719 69.8161 134.543C70.3841 134.411 70.8727 134.261 71.3086 134.129C71.9646 133.926 72.4929 133.759 73.1004 133.636C73.708 133.513 74.408 133.425 75.3942 133.425C76.1602 133.425 77.098 133.482 78.2603 133.631C78.9383 133.72 79.493 133.887 79.9949 134.12C80.4351 134.323 80.8402 134.578 81.2364 134.904C81.9276 135.467 82.6012 136.251 83.2704 137.255C84.2698 138.752 85.2252 140.72 86.2774 142.877C87.334 145.03 88.4963 147.376 90.0592 149.635C91.2743 151.391 92.8988 152.721 94.6863 153.615C96.4781 154.509 98.4373 154.971 100.414 154.971C101.607 154.971 102.809 154.799 103.971 154.434C105.715 153.888 107.379 152.888 108.704 151.427C110.034 149.969 110.998 148.068 111.456 145.875C111.649 144.95 111.746 144.048 111.746 143.176C111.746 142.036 111.583 140.949 111.293 139.954C110.782 138.206 109.897 136.753 108.907 135.591C107.419 133.847 105.719 132.716 104.385 131.98C103.047 131.245 102.061 130.911 101.933 130.871C100.317 130.334 98.5738 131.206 98.0367 132.821C97.4995 134.433 98.3669 136.172 99.9694 136.713C99.9694 136.713 100.401 136.867 100.995 137.162C101.44 137.382 101.981 137.691 102.523 138.069C103.337 138.642 104.143 139.381 104.689 140.218C104.966 140.636 105.186 141.081 105.341 141.561C105.495 142.045 105.583 142.564 105.587 143.176C105.587 143.603 105.543 144.074 105.429 144.607C105.252 145.435 104.984 146.078 104.667 146.593C104.187 147.368 103.597 147.878 102.884 148.248C102.175 148.613 101.325 148.807 100.418 148.807C99.4235 148.807 98.3713 148.565 97.4423 148.098C96.509 147.632 95.7077 146.962 95.131 146.126C94.0567 144.576 93.1278 142.815 92.2209 140.988C91.5429 139.615 90.8737 138.206 90.1472 136.819C89.6013 135.78 89.0202 134.75 88.3554 133.764C87.3604 132.284 86.1761 130.875 84.6352 129.74C83.8648 129.176 83.0107 128.687 82.0729 128.309C81.1396 127.93 80.127 127.666 79.0615 127.525C77.6747 127.345 76.4728 127.265 75.403 127.265C74.1835 127.265 73.1313 127.371 72.2199 127.534C71.5375 127.657 70.9388 127.811 70.4237 127.961C69.6488 128.185 69.0721 128.384 68.6054 128.498C68.1299 128.613 67.7513 128.674 67.1966 128.679C66.7651 128.679 66.2192 128.635 65.4884 128.498C64.7576 128.362 63.8462 128.133 62.7148 127.772C61.1606 127.279 59.6462 127.028 58.1801 127.028C56.987 127.028 55.8379 127.195 54.7549 127.503C52.8618 128.049 51.2108 129.031 49.8152 130.224C47.7196 132.025 46.1523 134.287 44.8623 136.638C43.5767 138.989 42.5686 141.455 41.7233 143.709C41.1509 145.245 40.1075 146.601 38.9188 147.517C38.3289 147.975 37.7081 148.323 37.1226 148.547C36.5326 148.772 35.9867 148.873 35.5156 148.873C35.1986 148.873 34.9213 148.829 34.6659 148.75C34.2873 148.631 33.9483 148.442 33.5873 148.085C33.2307 147.729 32.8432 147.178 32.5087 146.315C32.2401 145.62 32.1388 144.999 32.1344 144.387C32.1344 143.445 32.3942 142.494 32.8697 141.538C33.2219 140.825 33.6885 140.125 34.2036 139.487C34.9697 138.527 35.8326 137.713 36.4886 137.158C36.8144 136.881 37.0917 136.669 37.2766 136.533C37.3691 136.462 37.4395 136.414 37.4792 136.387L37.5188 136.361C38.9276 135.415 39.3018 133.504 38.3597 132.091C37.4131 130.677 35.498 130.299 34.0848 131.245C33.9527 131.338 32.0904 132.584 30.1269 134.767C29.1495 135.864 28.1413 137.206 27.3444 138.809C26.552 140.407 25.9708 142.296 25.9708 144.391C25.9708 145.739 26.2174 147.156 26.7633 148.556C27.1595 149.578 27.657 150.502 28.2558 151.317C29.1495 152.541 30.2854 153.505 31.5533 154.13C32.8168 154.759 34.186 155.046 35.5156 155.041C36.8364 155.041 38.1175 154.773 39.3194 154.31C41.1289 153.615 42.7755 152.501 44.1799 151.07C45.5799 149.639 46.7378 147.883 47.4906 145.879Z" fill="#121212"/>
<path d="M73.8797 121.023C75.7033 121.023 77.1816 119.544 77.1816 117.721C77.1816 115.897 75.7033 114.419 73.8797 114.419C72.0561 114.419 70.5778 115.897 70.5778 117.721C70.5778 119.544 72.0561 121.023 73.8797 121.023Z" fill="#121212"/>
<path d="M115.264 99.0096C116.601 99.0096 117.685 97.9255 117.685 96.5882C117.685 95.2509 116.601 94.1667 115.264 94.1667C113.927 94.1667 112.843 95.2509 112.843 96.5882C112.843 97.9255 113.927 99.0096 115.264 99.0096Z" fill="#121212"/>
<path d="M113.27 164.08C114.947 163.16 116.532 161.87 117.963 160.201C119.394 158.528 120.675 156.481 121.811 154.007C123.092 151.22 123.602 148.446 123.598 145.897C123.598 143.692 123.224 141.653 122.682 139.848C121.863 137.136 120.666 134.939 119.667 133.394C118.667 131.844 117.857 130.942 117.773 130.849C116.633 129.586 114.683 129.489 113.419 130.633C112.16 131.774 112.059 133.715 113.195 134.979C113.239 135.032 114.344 136.3 115.392 138.285C115.92 139.285 116.435 140.464 116.814 141.754C117.192 143.044 117.43 144.444 117.43 145.902C117.43 147.649 117.095 149.485 116.202 151.444C115.37 153.263 114.489 154.689 113.609 155.799C112.279 157.458 110.971 158.418 109.629 159.021C108.286 159.62 106.864 159.867 105.288 159.867C103.971 159.867 102.563 159.686 101.114 159.396C99.4455 159.061 97.8209 160.144 97.4863 161.813C97.1517 163.481 98.2348 165.106 99.9033 165.44C101.612 165.779 103.412 166.03 105.283 166.03C106.771 166.03 108.303 165.872 109.84 165.462C110.993 165.154 112.143 164.705 113.261 164.093L113.27 164.08Z" fill="#121212"/>
<path d="M82.0818 167.721C83.068 166.334 83.812 164.762 84.3183 163.085C84.8246 161.407 85.0931 159.62 85.0931 157.793C85.0931 155.142 84.5208 152.395 83.2 149.859C82.5396 148.596 81.6899 147.39 80.6465 146.298C79.6031 145.206 78.3616 144.233 76.9352 143.427C75.2225 142.459 73.4835 141.794 71.7753 141.376C70.0715 140.957 68.4029 140.786 66.8224 140.786C62.9261 140.786 59.567 141.807 57.1544 142.802C54.7373 143.801 53.2581 144.792 53.1304 144.876C51.7216 145.827 51.3474 147.742 52.2983 149.155C53.2493 150.564 55.16 150.934 56.5688 149.991C56.6128 149.961 57.8103 149.177 59.6814 148.424C61.5657 147.662 64.1104 146.945 66.818 146.949C67.9539 146.949 69.1206 147.073 70.3049 147.363C71.4848 147.654 72.6867 148.107 73.8974 148.794C74.8087 149.309 75.5615 149.908 76.1911 150.564C77.1333 151.55 77.8069 152.677 78.2603 153.905C78.7094 155.134 78.9251 156.463 78.9251 157.788C78.9251 158.999 78.7446 160.205 78.41 161.297C78.0798 162.389 77.6043 163.366 77.054 164.133C76.5389 164.855 75.8213 165.497 74.9804 166.034C73.7257 166.845 72.2156 167.404 71.0445 167.716C70.459 167.875 69.9615 167.98 69.6225 168.038C69.4552 168.068 69.3231 168.086 69.2438 168.099C69.2042 168.104 69.1778 168.108 69.1646 168.112C67.474 168.306 66.2589 169.834 66.457 171.524C66.6551 173.215 68.1784 174.43 69.869 174.232C70.0231 174.21 71.9338 173.99 74.3816 173.118C75.6056 172.678 76.9704 172.075 78.3132 171.212C79.6559 170.349 80.9899 169.213 82.0686 167.707L82.0818 167.721Z" fill="#121212"/>
<path d="M51.3518 164.727C52.2323 163.494 53.1348 162.526 54.0417 161.755C55.4065 160.602 56.7757 159.884 58.1405 159.435C59.5053 158.986 60.8657 158.814 62.1645 158.814C64.0576 158.814 65.8054 159.193 67.047 159.576C67.6677 159.765 68.1608 159.959 68.4866 160.091C68.6495 160.157 68.7684 160.214 68.8388 160.245L68.9093 160.28H68.9181C70.4326 161.042 72.2816 160.434 73.0477 158.924C73.8181 157.405 73.215 155.552 71.6961 154.781C71.5772 154.72 70.5382 154.2 68.8652 153.685C67.1878 153.17 64.8677 152.651 62.1689 152.651C59.7123 152.651 56.921 153.091 54.143 154.407C52.7562 155.063 51.3782 155.935 50.0618 157.053C48.7454 158.171 47.4907 159.527 46.3372 161.152C45.1529 162.816 44.3296 164.551 43.8189 166.272C43.3038 167.994 43.0969 169.693 43.0969 171.3C43.0969 173.167 43.3743 174.906 43.7749 176.469C44.3781 178.815 45.2586 180.761 45.9982 182.152C46.7379 183.544 47.3366 184.376 47.3982 184.468C48.3976 185.846 50.3216 186.154 51.704 185.155C53.0776 184.16 53.3902 182.236 52.3952 180.858C52.3644 180.818 51.5499 179.656 50.7706 177.882C50.3788 176.993 49.9958 175.949 49.7184 174.831C49.4366 173.708 49.2605 172.511 49.2605 171.3C49.2605 170.217 49.397 169.125 49.7228 168.033C50.0486 166.941 50.5637 165.841 51.3562 164.727H51.3518Z" fill="#121212"/>
<path d="M67.6413 189.469C67.8746 189.844 68.1035 190.288 68.3105 190.852C68.5218 191.415 68.7111 192.093 68.8696 192.925C69.1866 194.598 70.8023 195.695 72.4753 195.378C74.1483 195.061 75.2445 193.445 74.9275 191.772C74.6766 190.442 74.3332 189.262 73.8929 188.197C73.5099 187.268 73.052 186.432 72.5325 185.692C71.6256 184.393 70.5382 183.416 69.4771 182.667C68.6803 182.104 67.901 181.655 67.1658 181.245C66.0651 180.629 65.0702 180.096 64.1676 179.453C63.2607 178.806 62.4286 178.062 61.5965 176.962C61.1078 176.314 60.8173 175.716 60.628 175.139C60.443 174.562 60.3682 174.003 60.3682 173.448C60.3682 172.836 60.4651 172.224 60.6191 171.648C60.8525 170.78 61.2223 169.997 61.5305 169.46C61.6846 169.191 61.8166 168.984 61.9047 168.852C61.9487 168.786 61.9795 168.742 61.9972 168.72L62.0104 168.702C63.045 167.364 62.8116 165.44 61.4776 164.392C60.1393 163.34 58.2021 163.573 57.1499 164.912C57.0531 165.039 56.3575 165.933 55.6486 167.404C55.2964 168.139 54.9398 169.024 54.6669 170.041C54.3939 171.053 54.2046 172.202 54.2046 173.448C54.2046 174.58 54.3631 175.795 54.7593 177.028C55.1555 178.26 55.7851 179.498 56.6744 180.677C58.1185 182.597 59.7342 183.935 61.2223 184.908C62.3406 185.644 63.3796 186.189 64.2513 186.683C64.9073 187.052 65.4752 187.387 65.9507 187.73C66.6639 188.245 67.1702 188.739 67.6457 189.478L67.6413 189.469Z" fill="#121212"/>
<path d="M44.3428 194.413C45.2806 195.087 46.4385 195.769 47.8077 196.298C49.1769 196.826 50.7706 197.191 52.5272 197.191C53.6983 197.191 54.6493 197.456 55.5034 197.856C56.1418 198.16 56.7185 198.547 57.2248 198.975C57.982 199.613 58.5764 200.331 58.9594 200.868C59.1487 201.136 59.2896 201.361 59.3732 201.502C59.4173 201.572 59.4437 201.625 59.4569 201.651C60.2185 203.175 62.0676 203.791 63.5909 203.029C65.1142 202.268 65.7306 200.419 64.9689 198.895C64.9205 198.798 64.6652 198.297 64.1765 197.579C63.4456 196.509 62.2041 194.933 60.289 193.555C59.3336 192.868 58.2022 192.234 56.899 191.772C55.5958 191.31 54.121 191.023 52.5228 191.028C51.6247 191.028 50.797 190.843 50.0178 190.544C48.8511 190.099 47.8253 189.377 47.1209 188.765C46.7687 188.461 46.5001 188.188 46.3284 188.003C46.2448 187.911 46.1831 187.845 46.1479 187.805L46.1171 187.77C45.0561 186.454 43.1277 186.238 41.7981 187.294C40.4686 188.356 40.244 190.293 41.3051 191.627C41.4239 191.772 42.4629 193.071 44.3384 194.413H44.3428Z" fill="#121212"/>
<path d="M81.8396 190.689C83.222 192.895 85.1547 194.819 87.5101 196.223C89.8611 197.627 92.6567 198.504 95.6725 198.504C98.1864 198.504 100.832 197.883 103.403 196.544C105.979 195.206 108.475 193.163 110.809 190.359C111.896 189.051 111.72 187.11 110.412 186.018C109.105 184.926 107.163 185.106 106.071 186.414C104.169 188.695 102.298 190.174 100.555 191.081C98.8072 191.988 97.187 192.34 95.6725 192.344C94.4618 192.344 93.3083 192.111 92.2253 191.693C90.6051 191.068 89.1523 190.011 88.0472 188.743C86.9378 187.479 86.2026 186.009 85.9208 184.671C85.7931 184.059 85.7315 183.456 85.7315 182.857C85.7315 181.694 85.9604 180.554 86.3787 179.498C86.9994 177.913 88.0517 176.521 89.2624 175.588C89.8699 175.117 90.5083 174.76 91.1511 174.523C91.7938 174.285 92.4366 174.166 93.0706 174.166C93.6737 174.166 94.2769 174.272 94.9065 174.509C95.4524 174.721 95.875 174.972 96.2228 175.254C96.7423 175.676 97.0946 176.16 97.3367 176.689C97.5744 177.217 97.6889 177.789 97.6889 178.313C97.6889 178.833 97.5744 179.286 97.4335 179.568C97.3631 179.709 97.2927 179.81 97.2398 179.867C97.1826 179.929 97.1474 179.951 97.1298 179.96C96.7291 180.176 96.4826 180.202 96.2581 180.206C96.0379 180.206 95.8398 180.154 95.7121 180.105C95.6505 180.083 95.6065 180.061 95.6021 180.057C94.2065 179.181 92.353 179.555 91.4196 180.933C90.4643 182.342 90.8297 184.257 92.2341 185.212C92.3838 185.313 92.802 185.582 93.48 185.846C94.158 186.11 95.1002 186.366 96.2581 186.366C97.4115 186.37 98.7675 186.088 100.084 185.366C100.753 185.001 101.334 184.53 101.81 183.997C102.532 183.2 103.034 182.276 103.364 181.316C103.694 180.352 103.853 179.339 103.853 178.309C103.853 176.469 103.342 174.545 102.228 172.819C101.669 171.96 100.96 171.155 100.097 170.459C99.2386 169.763 98.2348 169.182 97.1077 168.751C95.7782 168.24 94.4046 167.998 93.0662 167.998C91.1819 167.998 89.3724 168.474 87.7611 169.279C85.3397 170.49 83.3233 172.414 81.8792 174.76C80.4396 177.103 79.5679 179.894 79.5635 182.861C79.5635 183.878 79.6647 184.908 79.8849 185.947C80.2371 187.625 80.9151 189.227 81.8352 190.698L81.8396 190.689Z" fill="#121212"/>
<path d="M78.6389 208.678C80.149 207.458 81.5402 205.988 82.7685 204.266C83.7591 202.88 83.4377 200.956 82.0509 199.969C80.6641 198.979 78.7402 199.3 77.754 200.687C76.8382 201.973 75.8345 203.02 74.7602 203.892C73.1489 205.195 71.3702 206.098 69.4507 206.688C67.5312 207.278 65.4708 207.546 63.3531 207.546C60.3902 207.546 57.3304 207.014 54.504 206.16C51.6775 205.305 49.0844 204.13 47.0636 202.919C44.739 201.524 42.8371 199.934 41.2874 198.336C38.9628 195.937 37.4352 193.498 36.4974 191.684C36.0307 190.777 35.7093 190.028 35.5156 189.527C35.4188 189.276 35.3483 189.086 35.3087 188.967C35.2867 188.91 35.2735 188.866 35.2691 188.844V188.827H35.2647C34.776 187.202 33.0678 186.277 31.4388 186.757C29.8055 187.242 28.8765 188.954 29.3564 190.588C29.4181 190.786 30.2193 193.454 32.4206 196.958C33.5213 198.71 34.9697 200.67 36.8584 202.62C38.7427 204.57 41.0673 206.507 43.8937 208.207C46.3856 209.699 49.4014 211.06 52.7209 212.063C56.0405 213.063 59.6594 213.71 63.3531 213.714C66.862 213.714 70.4501 213.124 73.8225 211.628C75.5043 210.879 77.1288 209.911 78.6389 208.687V208.678Z" fill="#121212"/>
<path d="M128.252 178.256C126.548 178.256 125.17 179.634 125.17 181.338C125.17 181.461 125.139 183.416 124.686 185.652C124.461 186.766 124.131 187.951 123.691 188.985C123.25 190.024 122.696 190.9 122.11 191.486C122.097 191.499 121.996 191.596 121.841 191.719C121.542 191.966 121.04 192.34 120.411 192.789C119.222 193.63 117.549 194.744 115.559 196.025C112.072 198.27 107.603 201.035 102.871 203.919C95.7738 208.246 88.0781 212.834 82.161 216.334C79.2024 218.086 76.6886 219.566 74.9143 220.609C74.0294 221.128 73.325 221.542 72.8451 221.824C72.3652 222.106 72.1099 222.255 72.1099 222.255C70.6394 223.114 70.1463 225.003 71.0048 226.473C71.8633 227.944 73.7521 228.437 75.2225 227.578C75.2269 227.578 86.9026 220.745 99.0845 213.415C105.178 209.748 111.394 205.957 116.36 202.823C118.843 201.251 121.014 199.846 122.718 198.688C123.572 198.107 124.307 197.592 124.919 197.134C125.227 196.905 125.504 196.69 125.76 196.483C126.015 196.271 126.244 196.073 126.477 195.84C127.851 194.462 128.767 192.846 129.436 191.244C130.431 188.84 130.876 186.423 131.109 184.569C131.338 182.716 131.342 181.426 131.342 181.334C131.342 179.63 129.964 178.252 128.26 178.252L128.252 178.256Z" fill="#121212"/>
<path d="M51.2064 93.2864C53.4077 91.5253 53.848 92.8461 54.7285 92.4058C55.2832 92.1285 55.1688 90.6448 53.4077 88.0033C51.6467 85.3617 48.5649 84.4812 45.9233 84.4812C42.4013 84.4812 38.439 87.1227 36.2377 91.0851C36.2377 91.0851 37.8182 91.7895 42.2824 94.6203C45.0428 96.3682 48.5209 95.4348 51.2064 93.2864Z" fill="#121212"/>
<path d="M82.7642 88.0033C81.0032 90.6448 80.8887 92.1285 81.4434 92.4058C82.3239 92.8461 82.7642 91.5253 84.9655 93.2864C87.651 95.4348 91.1291 96.3682 93.8895 94.6203C98.3537 91.7895 99.9342 91.0851 99.9342 91.0851C97.733 87.1227 93.7706 84.4812 90.2486 84.4812C87.607 84.4812 84.5252 85.3617 82.7642 88.0033Z" fill="#121212"/>
</svg>
